<?xml version="1.0" standalone="no"?>
<!DOCTYPE svg PUBLIC "-//W3C//DTD SVG 20010904//EN"
 "http://www.w3.org/TR/2001/REC-SVG-20010904/DTD/svg10.dtd">
<svg version="1.0" xmlns="http://www.w3.org/2000/svg"
 width="96.000000pt" height="96.000000pt" viewBox="0 0 96.000000 96.000000"
 preserveAspectRatio="xMidYMid meet">
<metadata>
Created by potrace 1.11, written by Peter Selinger 2001-2013
</metadata>
<g transform="translate(0.000000,96.000000) scale(0.100000,-0.100000)"
fill="#000000" stroke="none">
<path d="M432 913 c4 -32 1 -42 -24 -63 -16 -14 -31 -36 -33 -49 -5 -28 -1
-24 -51 -49 -95 -48 -172 -161 -195 -285 -13 -72 -15 -67 39 -178 112 -230
384 -285 558 -112 187 186 151 482 -71 583 -24 11 -48 20 -52 20 -5 0 -14 15
-21 33 -11 31 -30 47 -74 61 -13 4 -18 16 -18 39 0 30 -3 33 -31 35 -31 2 -31
2 -27 -35z"/>
</g>
</svg>
